<?xml version="1.0" standalone="no"?>
<!DOCTYPE svg PUBLIC "-//W3C//DTD SVG 20010904//EN"
 "http://www.w3.org/TR/2001/REC-SVG-20010904/DTD/svg10.dtd">
<svg version="1.0" xmlns="http://www.w3.org/2000/svg"
 width="1424.000000pt" height="199.000000pt" viewBox="0 0 1424.000000 199.000000"
 preserveAspectRatio="xMidYMid meet">

<g transform="translate(0.000000,199.000000) scale(0.100000,-0.100000)"
fill="#000000" stroke="none">
<path d="M80 990 l0 -910 105 0 105 0 0 727 c0 399 3 723 7 719 4 -4 148 -330
319 -724 l312 -717 96 0 97 0 311 715 c170 393 314 719 319 725 5 5 9 -295 9
-718 l0 -727 105 0 105 0 0 910 0 910 -133 0 -132 0 -336 -771 c-184 -424
-339 -770 -344 -768 -6 2 -161 348 -345 771 l-335 768 -132 0 -133 0 0 -910z"/>
<path d="M2510 999 c-195 -496 -357 -905 -358 -910 -2 -6 43 -8 110 -7 l113 3
95 252 95 253 420 0 420 0 95 -253 95 -252 113 -3 c61 -1 112 0 112 3 0 2
-142 366 -316 807 -174 442 -334 849 -356 906 l-39 102 -122 0 -122 0 -355
-901z m654 226 c91 -243 166 -444 166 -448 0 -4 -155 -7 -345 -7 -190 0 -345
3 -345 7 0 21 345 902 351 895 4 -4 81 -205 173 -447z"/>
<path d="M5860 990 l0 -910 105 0 105 0 0 318 0 318 141 133 140 133 22 -20
c12 -12 193 -214 402 -451 l380 -430 138 0 c75 -1 137 1 137 4 0 3 -207 235
-460 515 -253 280 -460 514 -460 519 0 5 168 168 373 362 204 194 388 367 407
386 l35 33 -138 0 -137 0 -487 -472 -488 -471 -3 471 -2 472 -105 0 -105 0 0
-910z"/>
<path d="M9520 990 l0 -910 105 0 105 0 2 752 3 753 520 -753 520 -752 108 0
107 0 0 910 0 910 -105 0 -105 0 -2 -742 -3 -742 -515 742 -515 741 -112 1
-113 0 0 -910z"/>
<path d="M11360 990 l0 -910 105 0 105 0 0 425 0 425 475 0 475 0 0 90 0 90
-475 0 -475 0 0 305 0 305 505 0 505 0 0 90 0 90 -610 0 -610 0 0 -910z"/>
<path d="M12690 1810 l0 -90 320 0 320 0 0 -820 0 -820 105 0 105 0 0 820 0
820 320 0 320 0 0 90 0 90 -745 0 -745 0 0 -90z"/>
<path d="M4320 1830 c0 -28 -3 -30 -35 -30 -32 0 -35 -2 -35 -30 0 -29 -1 -29
-62 -32 -63 -3 -63 -3 -66 -35 -3 -30 -6 -33 -38 -33 -32 0 -34 -2 -34 -35 0
-32 -2 -35 -30 -35 -27 0 -30 -3 -30 -30 0 -28 -3 -30 -35 -30 l-35 0 2 -172
3 -173 33 -3 c28 -3 32 -7 32 -33 0 -25 4 -29 29 -29 26 0 30 -4 33 -32 3 -29
7 -33 36 -36 28 -3 32 -7 32 -33 l0 -29 65 0 65 0 0 -30 0 -30 100 0 100 0 0
-30 0 -29 133 -3 132 -3 3 -32 3 -33 129 0 129 0 3 -32 3 -33 68 -3 c67 -3 67
-3 67 -32 l0 -30 65 0 65 0 0 -35 c0 -33 2 -35 35 -35 l35 0 0 -130 0 -130
-35 0 c-33 0 -35 -2 -35 -35 0 -33 -2 -35 -35 -35 -33 0 -35 -2 -35 -35 0 -32
-2 -35 -30 -35 -27 0 -30 -3 -30 -30 l0 -30 -330 0 -330 0 0 30 c0 28 -3 30
-35 30 -33 0 -35 2 -35 35 0 33 -2 35 -35 35 -32 0 -35 2 -35 30 0 27 -3 30
-30 30 -28 0 -30 3 -30 35 0 33 -2 35 -35 35 -33 0 -35 2 -35 35 0 32 -2 35
-30 35 -29 0 -29 1 -32 63 -3 62 -3 62 -35 65 -29 3 -33 7 -33 32 0 25 -4 29
-32 32 -29 3 -33 7 -36 36 -3 28 -7 32 -33 32 l-29 0 0 -330 0 -330 30 0 30 0
0 100 0 100 35 0 c33 0 35 2 35 36 0 34 1 35 33 32 28 -3 32 -7 35 -35 3 -29
7 -33 33 -33 27 0 29 -3 29 -35 l0 -35 65 0 65 0 0 -30 c0 -28 3 -30 35 -30
33 0 35 -2 35 -35 l0 -35 394 0 395 0 3 33 c3 28 7 32 36 35 28 3 32 7 32 33
l0 29 65 0 65 0 0 35 c0 33 2 35 35 35 33 0 35 2 35 35 0 33 2 35 35 35 32 0
35 2 35 30 0 27 3 30 30 30 l30 0 0 165 0 165 -29 0 c-26 0 -30 4 -33 33 -3
28 -7 32 -35 35 -29 3 -33 7 -33 33 0 27 -3 29 -35 29 -33 0 -35 2 -35 35 l0
35 -65 0 -65 0 0 35 0 35 -100 0 -100 0 0 30 0 30 -129 0 -130 0 -3 33 -3 32
-132 3 -133 3 0 29 0 30 -65 0 -65 0 0 35 0 35 -70 0 -70 0 0 35 c0 32 -2 35
-30 35 l-30 0 0 130 0 130 30 0 c28 0 30 3 30 35 0 33 2 35 35 35 32 0 35 2
35 29 0 26 4 30 33 33 28 3 32 7 35 36 l3 32 294 0 294 0 3 -32 c3 -29 7 -33
36 -36 28 -3 32 -7 32 -32 0 -25 4 -29 33 -32 28 -3 32 -7 35 -35 3 -29 7 -33
32 -33 25 0 29 -4 32 -32 3 -29 7 -33 36 -36 28 -3 32 -7 32 -32 0 -25 4 -29
33 -32 l32 -3 3 -67 c3 -68 3 -68 32 -68 27 0 30 -3 30 -30 0 -28 3 -30 35
-30 l35 0 0 -86 0 -85 33 3 32 3 3 378 2 377 -35 0 -35 0 0 -100 0 -100 -35 0
c-32 0 -35 -2 -35 -30 0 -27 -3 -30 -30 -30 -27 0 -30 3 -30 30 0 28 -3 30
-35 30 -33 0 -35 2 -35 35 0 33 -2 35 -35 35 -33 0 -35 2 -35 35 l0 35 -65 0
-65 0 0 30 0 30 -365 0 -365 0 0 -30z"/>
<path d="M7940 1830 c0 -28 -3 -30 -35 -30 -32 0 -35 -2 -35 -30 l0 -30 -65 0
-65 0 0 -35 c0 -33 -2 -35 -35 -35 -33 0 -35 -2 -35 -35 0 -33 -2 -35 -35 -35
-32 0 -35 -2 -35 -30 0 -27 -3 -30 -30 -30 l-30 0 0 -175 0 -175 30 0 c27 0
30 -3 30 -30 0 -28 3 -30 35 -30 33 0 35 -2 35 -35 0 -33 2 -35 35 -35 32 0
35 -2 35 -30 0 -29 1 -29 63 -32 59 -3 62 -4 65 -30 l3 -28 100 0 99 0 0 -30
0 -30 130 0 130 0 0 -35 0 -35 135 0 135 0 0 -35 0 -35 65 0 65 0 0 -30 c0
-29 0 -29 68 -32 l67 -3 3 -32 c3 -29 7 -33 33 -33 l29 0 0 -130 0 -130 -30 0
c-28 0 -30 -3 -30 -35 0 -33 -2 -35 -35 -35 -33 0 -35 -2 -35 -35 0 -33 -2
-35 -35 -35 -32 0 -35 -2 -35 -30 l0 -30 -330 0 -330 0 0 30 c0 27 -3 30 -29
30 -26 0 -30 4 -33 33 -3 28 -7 32 -35 35 -29 3 -33 7 -33 32 0 25 -4 29 -32
32 -29 3 -33 7 -36 36 -3 28 -7 32 -32 32 -25 0 -29 4 -32 33 -3 28 -7 32 -35
35 l-33 3 0 65 0 64 -30 0 c-27 0 -30 3 -30 30 0 28 -3 30 -35 30 -33 0 -35 2
-35 35 0 33 -2 35 -35 35 l-35 0 0 -330 0 -330 35 0 35 0 0 100 0 100 35 0
c33 0 35 2 35 35 0 32 2 35 30 35 28 0 30 -3 30 -35 0 -33 2 -35 35 -35 33 0
35 -2 35 -35 l0 -35 65 0 65 0 0 -29 c0 -26 4 -30 33 -33 28 -3 32 -7 35 -35
l3 -33 395 0 394 0 0 35 c0 33 2 35 35 35 32 0 35 2 35 30 l0 30 65 0 65 0 0
35 c0 32 2 35 29 35 26 0 30 4 33 33 3 28 7 32 36 35 28 3 32 7 32 33 0 27 3
29 35 29 l35 0 0 165 0 165 -35 0 c-33 0 -35 2 -35 35 0 33 -2 35 -35 35 -32
0 -35 2 -35 30 0 27 -3 30 -30 30 -28 0 -30 3 -30 35 l0 35 -64 0 -65 0 -3 33
-3 32 -97 3 -98 3 0 29 0 30 -135 0 -135 0 0 35 0 35 -135 0 -135 0 0 30 c0
29 -1 29 -62 32 -63 3 -63 3 -66 36 l-3 32 -65 0 -64 0 0 35 c0 33 -2 35 -35
35 l-35 0 0 130 0 130 35 0 c33 0 35 2 35 35 0 33 2 35 35 35 32 0 35 2 35 30
0 27 3 30 29 30 26 0 30 4 33 33 l3 32 298 3 297 2 0 -35 c0 -33 2 -35 35 -35
32 0 35 -2 35 -30 0 -27 3 -30 30 -30 28 0 30 -3 30 -35 0 -33 2 -35 35 -35
33 0 35 -2 35 -35 0 -33 2 -35 35 -35 32 0 35 -2 35 -30 0 -27 3 -30 30 -30
29 0 29 0 32 -67 l3 -68 33 -3 c28 -3 32 -7 32 -33 0 -26 4 -29 30 -29 l29 0
3 -82 3 -83 33 -3 32 -3 0 380 0 381 -35 0 -35 0 0 -100 0 -100 -30 0 c-27 0
-30 -3 -30 -30 0 -28 -3 -30 -35 -30 -32 0 -35 2 -35 30 0 27 -3 30 -30 30
-28 0 -30 3 -30 35 0 33 -2 35 -35 35 -33 0 -35 2 -35 35 l0 35 -65 0 -65 0 0
30 0 30 -365 0 -365 0 0 -30z"/>
</g>
</svg>
